<svg width="101" height="101" viewBox="0 0 101 101" fill="none" xmlns="http://www.w3.org/2000/svg">
<rect x="0.215332" y="0.0712891" width="100" height="100" rx="50" fill="#DDEAFA"/>
<path d="M72.1529 49.2588H70.5072C70.0894 38.704 61.5826 30.1973 51.0279 29.7794V28.1338C51.0123 27.0803 49.4232 27.0537 49.4029 28.1338C49.4029 28.1338 49.4029 29.7946 49.4029 29.7946C40.2094 30.1676 32.2684 36.7891 30.3508 45.8406C30.2579 46.2794 30.5384 46.7106 30.9776 46.8038C31.4144 46.8947 31.8472 46.6166 31.9409 46.177C33.6998 37.8721 40.9729 31.7913 49.4029 31.4196V33.8625C41.0922 34.2764 34.4205 40.9481 34.0065 49.2588H28.2779C27.2243 49.2719 27.1986 50.8651 28.2779 50.8838C28.2779 50.8838 29.9243 50.8838 29.9243 50.8838C29.9704 52.045 30.1101 53.1927 30.3508 54.302C32.2684 63.3535 40.2094 69.975 49.4029 70.3479V72.0088C49.414 73.0574 51.0094 73.0918 51.0279 72.0087V70.3632C61.5826 69.9453 70.0894 61.4386 70.5072 50.8838H72.1529C73.2014 50.87 73.2368 49.2791 72.1529 49.2588ZM50.2154 35.4463C53.4638 35.4463 56.5376 36.4893 59.1045 38.463C59.9575 39.1017 60.9323 37.8372 60.0947 37.1744C57.4571 35.1467 54.3359 34.0153 51.0279 33.854V31.4044C60.6866 31.82 68.4667 39.6 68.8823 49.2588H66.4326C66.2713 45.9508 65.14 42.8296 63.1122 40.192C62.4548 39.3556 61.1827 40.3343 61.8237 41.1822C63.7974 43.749 64.8404 46.8229 64.8404 50.0713C64.8404 54.9504 62.4298 59.2675 58.7466 61.9258V60.3656C58.7928 56.9994 56.5996 53.7206 53.4793 52.4772C55.1 51.4112 56.1738 49.579 56.1738 47.4985C56.1738 44.2128 53.5007 41.54 50.2154 41.54C44.2939 41.5676 42.0626 49.2842 46.9563 52.4801C44.4694 53.5005 42.5519 55.6603 41.9087 58.418C41.8067 58.8548 42.0781 59.2916 42.5153 59.3936C42.9509 59.4952 43.3893 59.2238 43.4908 58.787C45.5133 50.8544 56.962 52.2053 57.1216 60.3657C57.1216 60.3656 57.1216 62.9571 57.1216 62.9571C55.0632 64.0647 52.7121 64.6963 50.2154 64.6963C42.3657 64.8598 35.4256 57.9252 35.5905 50.0712C35.5904 42.007 42.1511 35.4463 50.2154 35.4463ZM50.2154 51.8316C47.8259 51.8316 45.8819 49.8876 45.8819 47.4985C46.0854 41.7631 54.3462 41.7646 54.5488 47.4986C54.5488 49.8876 52.6049 51.8316 50.2154 51.8316ZM31.9397 53.9612C31.7225 52.9613 31.5942 51.929 31.5492 50.8838H33.9981C34.2309 58.9962 41.294 66.0554 49.403 66.2884C49.4029 66.2886 49.4029 68.7229 49.4029 68.7229C40.9729 68.3512 33.6997 62.2703 31.9397 53.9612ZM51.0279 68.7382V66.2801C59.2225 65.9133 66.0224 59.2436 66.4242 50.8838C66.4242 50.8838 68.8823 50.8838 68.8823 50.8838C68.4667 60.5425 60.6866 68.3226 51.0279 68.7382Z" fill="black"/>
<path d="M28.2778 35.4463C28.7265 35.4463 29.0903 35.0825 29.0903 34.6338V28.9463H34.7778C35.2265 28.9463 35.5903 28.5825 35.5903 28.1338C35.5903 27.6851 35.2265 27.3213 34.7778 27.3213H28.2778C27.8291 27.3213 27.4653 27.6851 27.4653 28.1338V34.6338C27.4653 35.0825 27.8291 35.4463 28.2778 35.4463Z" fill="black"/>
<path d="M28.2778 72.8213H34.7778C35.8436 72.8029 35.8477 71.2152 34.7778 71.1963H29.0903V65.5088C29.074 64.4439 27.483 64.4388 27.4653 65.5088V72.0088C27.4653 72.4575 27.8291 72.8213 28.2778 72.8213Z" fill="black"/>
<path d="M72.1529 27.3213H65.6529C64.5871 27.3397 64.5831 28.9274 65.653 28.9463H71.3404V34.6338C71.3567 35.6987 72.9478 35.7038 72.9654 34.6337V28.1338C72.9654 27.6851 72.6016 27.3213 72.1529 27.3213Z" fill="black"/>
<path d="M72.1528 64.6963C71.7041 64.6963 71.3403 65.0601 71.3403 65.5088V71.1963H65.6528C65.2041 71.1963 64.8403 71.5601 64.8403 72.0088C64.8403 72.4575 65.2041 72.8213 65.6528 72.8213H72.1528C72.6015 72.8213 72.9653 72.4575 72.9653 72.0088V65.5088C72.9653 65.0601 72.6015 64.6963 72.1528 64.6963Z" fill="black"/>
</svg>
