<svg width="20" height="21" viewBox="0 0 20 21" fill="none" xmlns="http://www.w3.org/2000/svg">
<g id="_x31_0.Linkedin">
<path id="Vector" d="M19.8571 20.5558V13.3354C19.8571 9.78688 19.0932 7.07617 14.9532 7.07617C12.9572 7.07617 11.6265 8.16046 11.0843 9.19545H11.035V7.39653H7.11682V20.5558H11.2075V14.0254C11.2075 12.3004 11.5279 10.6494 13.6472 10.6494C15.7418 10.6494 15.7664 12.5962 15.7664 14.124V20.5311H19.8571V20.5558Z" fill="#BBBBBB"/>
<path id="Vector_2" d="M0.463257 7.39648H4.55396V20.5557H0.463257V7.39648Z" fill="#BBBBBB"/>
<path id="Vector_3" d="M2.50859 0.841553C1.20252 0.841553 0.142883 1.90119 0.142883 3.20726C0.142883 4.51333 1.20252 5.59761 2.50859 5.59761C3.81466 5.59761 4.8743 4.51333 4.8743 3.20726C4.8743 1.90119 3.81466 0.841553 2.50859 0.841553Z" fill="#BBBBBB"/>
</g>
</svg>
