<svg width="24" height="24" viewBox="0 0 24 24" fill="none" xmlns="http://www.w3.org/2000/svg">
<g id="Icons">
<path id="Vector" d="M8.17929 7.69177L2.00494 8.59759C1.67565 8.64589 1.41614 8.86592 1.31149 9.186C1.20569 9.51107 1.28695 9.84725 1.52884 10.0857L5.99659 14.4818C6.0859 14.5695 6.12692 14.696 6.10584 14.8195L5.0509 21.0264C4.9934 21.3645 5.12335 21.685 5.39935 21.8839C5.66845 22.079 6.00425 22.1013 6.29712 21.9464L11.8198 19.0154C11.9321 18.9564 12.0671 18.9564 12.1794 19.0154L17.7021 21.946C17.9953 22.1017 18.3307 22.079 18.5998 21.8839C18.8758 21.6846 19.0062 21.3645 18.9483 21.026L17.8933 14.8195C17.8723 14.696 17.9133 14.5699 18.0026 14.4818L22.4703 10.0857C22.7126 9.84725 22.7939 9.51107 22.6877 9.186C22.5834 8.86592 22.3239 8.64589 21.9942 8.59759L15.8199 7.69177C15.6949 7.67337 15.5872 7.59479 15.5312 7.48094L12.7697 1.83329C12.6214 1.52969 12.3331 1.34875 11.9992 1.34875C11.6653 1.34875 11.3771 1.52969 11.2287 1.83329L8.46717 7.48094C8.4112 7.5944 8.30349 7.67337 8.17852 7.69177H8.17929ZM12.1288 8.2177C12.2867 8.0774 12.529 8.09121 12.6697 8.24952C12.8103 8.40784 12.7962 8.6501 12.6378 8.79079L8.03784 12.8794C7.965 12.9446 7.87377 12.9764 7.7833 12.9764C7.67789 12.9764 7.57247 12.9331 7.49695 12.8476C7.35627 12.6897 7.37045 12.447 7.52877 12.3067L12.1288 8.2177ZM10.114 8.24952C10.2547 8.40784 10.2405 8.6501 10.0822 8.79079L8.03784 10.6082C7.965 10.673 7.87377 10.7048 7.7833 10.7048C7.67789 10.7048 7.57247 10.6615 7.49695 10.5764C7.35627 10.418 7.37045 10.1758 7.52877 10.0351L9.57309 8.2177C9.73102 8.0774 9.97329 8.09121 10.114 8.24952Z" fill="#BBBBBB"/>
</g>
</svg>
