<svg width="31" height="30" viewBox="0 0 31 30" fill="none" xmlns="http://www.w3.org/2000/svg">
<path d="M15.4082 30C23.6925 30 30.4082 23.2843 30.4082 15C30.4082 6.71573 23.6925 0 15.4082 0C7.12393 0 0.408203 6.71573 0.408203 15C0.408203 23.2843 7.12393 30 15.4082 30Z" fill="#4BAE4F"/>
<path d="M6.24298 25.0277C6.02727 25.0277 5.81689 24.9421 5.66094 24.7846C5.45547 24.5766 5.37607 24.275 5.45343 23.9925L6.66047 19.5843C5.90039 18.1526 5.5005 16.5456 5.50091 14.9158C5.50295 9.43271 9.9648 4.97168 15.4466 4.97168C18.1063 4.9725 20.6051 6.00845 22.4822 7.88839C24.3597 9.76793 25.3928 12.2667 25.392 14.924C25.3899 20.4078 20.9285 24.8693 15.4462 24.8693C13.895 24.8689 12.3596 24.5042 10.9823 23.812L6.4505 25.0007C6.38214 25.0191 6.31215 25.0277 6.24298 25.0277ZM11.0814 22.1212C11.2173 22.1212 11.3523 22.1552 11.4735 22.2211C12.6855 22.8821 14.0579 23.2316 15.4434 23.2321C20.0264 23.2321 23.7531 19.5049 23.7551 14.9231C23.756 12.7031 22.8927 10.6156 21.3243 9.0455C19.7558 7.475 17.6683 6.60972 15.4466 6.6089C10.8673 6.6089 7.14059 10.3356 7.13854 14.917C7.13813 16.3762 7.52165 17.8128 8.24735 19.0702C8.35663 19.2597 8.38528 19.4849 8.32798 19.6956L7.40745 23.0573L10.8743 22.1478C10.9418 22.1302 11.0118 22.1212 11.0814 22.1212Z" fill="white"/>
<path d="M11.8779 15.1004C11.7613 14.9448 10.9263 13.8364 10.9263 12.6892C10.9263 11.5419 11.5284 10.9779 11.742 10.7446C11.9557 10.5112 12.2082 10.4531 12.3638 10.4531C12.5193 10.4531 12.6748 10.4548 12.8107 10.4613C12.954 10.4687 13.1459 10.4069 13.335 10.8616C13.5295 11.3282 13.9952 12.4759 14.0538 12.5926C14.1123 12.7092 14.1508 12.8451 14.0734 13.0011C13.9957 13.1566 13.9568 13.2536 13.8405 13.3899C13.7239 13.5262 13.5958 13.694 13.4906 13.7984C13.3739 13.9146 13.2524 14.0407 13.3882 14.274C13.5241 14.5073 13.992 15.2707 14.6849 15.8891C15.5752 16.6836 16.3262 16.9296 16.5595 17.0462C16.7924 17.1629 16.9287 17.1436 17.0646 16.9877C17.2005 16.8322 17.6475 16.307 17.803 16.0737C17.9586 15.8404 18.1137 15.8793 18.3273 15.9571C18.541 16.0348 19.6871 16.5989 19.92 16.7155C20.1528 16.8322 20.3084 16.8907 20.3669 16.9877C20.4254 17.0851 20.4254 17.5517 20.231 18.0961C20.0366 18.6405 19.1054 19.1378 18.6577 19.2045C18.2561 19.2647 17.7478 19.2896 17.1895 19.112C16.851 19.0048 16.4167 18.8611 15.8605 18.6208C13.5217 17.6107 11.995 15.2559 11.8779 15.1004Z" fill="white"/>
</svg>
