<svg width="178" height="166" viewBox="0 0 178 166" fill="none" xmlns="http://www.w3.org/2000/svg">
<path d="M11.537 73.3048L12.2899 74.1396L10.8441 75.5923C11.0117 76.0135 11.1092 76.462 11.1868 76.9304C11.2493 77.4114 11.2443 77.9097 11.1767 78.4455C10.9516 80.0801 10.2512 81.2762 9.05302 82.0437C7.89735 82.724 6.53406 82.9507 4.96565 82.7265C3.54233 82.5396 2.36915 82.0337 1.47363 81.1915C0.290449 80.1075 -0.182324 78.6822 0.0628176 76.908C0.312962 75.0566 1.10342 73.7758 2.41418 73.0506C3.44477 72.485 4.66798 72.3031 6.12633 72.5024C6.79671 72.5847 7.44459 72.7591 8.04744 73.0133C8.97297 73.3821 9.68589 73.9103 10.2062 74.5956L11.5345 73.3048H11.537ZM9.98606 77.2619C9.98106 76.9927 9.93353 76.7585 9.84098 76.5567L8.77286 77.5833L7.9824 76.7535L9.25814 75.53C8.81038 75.0217 8.29008 74.6629 7.71224 74.4162C7.09689 74.1819 6.52406 74.0225 5.96373 73.9552C4.72552 73.7783 3.69492 73.9652 2.83942 74.5034C2.00894 75.0541 1.49865 75.8814 1.35106 77.0027C1.19597 78.134 1.43111 79.0809 2.05397 79.8359C2.69934 80.6034 3.76246 81.0794 5.26583 81.2912C6.53656 81.4531 7.58217 81.2762 8.41765 80.7405C9.25814 80.2072 9.76593 79.3251 9.94353 78.1016C9.97605 77.8001 9.99607 77.521 9.98606 77.2619Z" fill="#231F20"/>
<path d="M2.12679 67.5337L8.44045 69.2905C9.19088 69.4973 9.83626 69.5272 10.4116 69.3902C11.2671 69.1709 11.8349 68.5803 12.1101 67.606C12.4353 66.4124 12.2652 65.5104 11.5773 64.8575C11.2095 64.5161 10.6617 64.237 9.92381 64.0352L3.59765 62.266L3.99287 60.873L9.72369 62.4853C10.9819 62.8316 11.9075 63.2677 12.4803 63.791C13.5384 64.7553 13.8361 66.1109 13.3408 67.8253C12.8455 69.5571 11.9125 70.5539 10.5066 70.823C9.7312 70.9775 8.71561 70.8753 7.46238 70.5215L1.72656 68.9242L2.12179 67.5362L2.12679 67.5337Z" fill="#231F20"/>
<path d="M6.26953 55.0794L6.89489 53.5942L18.1689 54.1649L17.5586 55.6176L14.1966 55.4033L12.5857 59.2258L15.0621 61.5058L14.4893 62.8664L6.26953 55.0794ZM12.9634 55.3211L8.01304 55.0071L11.6777 58.3761L12.9634 55.3211Z" fill="#231F20"/>
<path d="M9.46289 48.1227L10.1558 46.8843L18.3105 51.4419L20.912 46.812L22.0252 47.4275L18.7157 53.2983L9.46289 48.1227Z" fill="#231F20"/>
<path d="M14.1406 40.2605L14.9411 39.0444L23.7762 44.9152L22.9607 46.1287L14.1431 40.2605H14.1406Z" fill="#231F20"/>
<path d="M21.3577 30.5796L22.3433 31.3745L20.152 34.1728L27.4912 39.9389L26.5757 41.0702L19.2465 35.2991L17.0252 38.1099L16.0371 37.32L21.3627 30.5796H21.3577Z" fill="#231F20"/>
<path d="M22.3008 29.5158L23.4815 28.3347L29.2473 29.76L27.7865 24.0188L28.9897 22.8252L30.6331 30.1163L33.6624 33.124L32.6518 34.1407L29.6175 31.133L22.3008 29.5158Z" fill="#231F20"/>
<path d="M39.0786 23.8942C39.4539 24.3627 39.8416 24.6841 40.2643 24.8486C41.0398 25.1551 41.9028 24.9707 42.8458 24.2979C43.2761 24.0088 43.6213 23.6649 43.8764 23.3036C44.3817 22.5785 44.4042 21.9082 43.964 21.2827C43.6288 20.8143 43.2461 20.5875 42.8183 20.5875C42.3906 20.5875 41.8027 20.7445 41.0948 21.0336L39.769 21.5718C38.9035 21.9157 38.2432 22.1001 37.7954 22.1075C37.0024 22.1325 36.3546 21.7736 35.8368 21.056C35.2915 20.2885 35.0988 19.4587 35.2689 18.599C35.4465 17.7269 35.9994 16.9669 36.9624 16.2866C37.8504 15.6586 38.7535 15.3472 39.679 15.3472C40.5995 15.3522 41.4125 15.8406 42.0929 16.785L40.9848 17.5749C40.5945 17.1488 40.2293 16.8796 39.8816 16.7675C39.2162 16.5482 38.4708 16.7451 37.6553 17.3207C36.9824 17.7817 36.6097 18.2601 36.5347 18.766C36.4421 19.2668 36.5397 19.7004 36.8098 20.0842C37.1 20.5028 37.5052 20.6897 37.983 20.6548C38.2982 20.6174 38.9211 20.4156 39.8491 20.0368L41.2074 19.4886C41.8728 19.2295 42.4456 19.0899 42.9209 19.0999C43.7388 19.1348 44.4192 19.536 44.9721 20.3034C45.65 21.2478 45.8 22.1798 45.4023 23.0569C45.0196 23.959 44.3717 24.7265 43.4687 25.3544C42.4256 26.102 41.395 26.4109 40.4119 26.2714C39.4288 26.1518 38.6184 25.6136 37.9705 24.6791L39.0736 23.8992L39.0786 23.8942Z" fill="#231F20"/>
<path d="M42.3926 12.8929L43.8659 12.1055L48.9714 15.1331L49.234 9.22245L50.7224 8.4126L50.1846 15.8782L52.2308 19.6209L50.9575 20.3037L48.9264 16.551L42.3951 12.8904L42.3926 12.8929Z" fill="#231F20"/>
<path d="M56.2479 13.8671C56.4856 14.4253 56.8058 14.8264 57.1585 15.0856C57.8439 15.5765 58.7294 15.6039 59.8075 15.1828C60.2853 14.9959 60.6955 14.7492 61.0482 14.4576C61.7036 13.8721 61.8912 13.2292 61.606 12.5065C61.4159 11.9832 61.0933 11.6568 60.6705 11.5596C60.2578 11.4699 59.6624 11.4699 58.8945 11.5895L57.4812 11.7914C56.5506 11.9259 55.8627 11.9384 55.4275 11.8337C54.652 11.6643 54.1192 11.1709 53.7865 10.3461C53.4338 9.46898 53.4538 8.61926 53.819 7.82685C54.2143 7.02448 54.9422 6.40152 56.0378 5.9804C57.0459 5.59167 57.999 5.49698 58.8945 5.73122C59.8 5.94053 60.4529 6.61333 60.8981 7.69728L59.6324 8.19565C59.3522 7.6923 59.0646 7.33845 58.7519 7.13661C58.1641 6.78526 57.3886 6.78526 56.4556 7.1416C55.6976 7.4456 55.2073 7.81938 55.0122 8.27788C54.8046 8.74385 54.8046 9.18989 54.9597 9.62596C55.1598 10.1144 55.4925 10.3835 55.9753 10.4533C56.278 10.5081 56.9333 10.4533 57.9164 10.3087L59.3798 10.1019C60.0927 10.0072 60.6755 10.0197 61.1258 10.1542C61.9212 10.3611 62.4916 10.9217 62.8343 11.8038C63.262 12.8828 63.1845 13.8098 62.5916 14.5922C61.9988 15.3597 61.1758 15.9353 60.1477 16.334C58.962 16.8124 57.8914 16.8623 56.9684 16.5034C56.0478 16.1471 55.3874 15.432 54.9872 14.3729L56.2404 13.8646L56.2479 13.8671Z" fill="#231F20"/>
<path d="M70.3376 1.8916L70.6478 3.10513L67.1808 3.9997L69.5497 13.0177L68.1514 13.374L65.79 4.37846L62.323 5.27054L62.0078 4.05203L70.3401 1.8916H70.3376Z" fill="#231F20"/>
<path d="M72.6719 1.45523L80.3138 0.38623L80.4964 1.67202L74.2403 2.53669L74.693 5.72625L80.4489 4.9164L80.6365 6.12993L74.8531 6.9323L75.3634 10.4906L81.7146 9.59359L81.8822 10.8445L74.1502 11.926L72.6744 1.45274L72.6719 1.45523Z" fill="#231F20"/>
<path d="M83.207 0.161919L85.2682 0.127034L88.4876 9.01543L91.3592 0.0348353L93.4029 0.00244141L93.5705 10.5703L92.2072 10.6027L92.0972 4.3532C92.0897 4.13142 92.0897 3.77758 92.0972 3.28171C92.0897 2.78334 92.0872 2.2451 92.0797 1.68443L89.208 10.6401L87.7822 10.675L84.5603 1.80903L84.5828 2.13047C84.5828 2.38464 84.6028 2.78334 84.6179 3.30662C84.6354 3.83739 84.6529 4.2311 84.6579 4.47281L84.7629 10.7149L83.3946 10.7373L83.207 0.164411V0.161919Z" fill="#231F20"/>
<path d="M108.485 2.97001C109.068 3.80477 109.318 4.65948 109.238 5.55156L107.852 5.30237C107.832 4.60715 107.63 4.01658 107.239 3.54313C106.854 3.06221 106.256 2.74574 105.428 2.59872C104.408 2.40685 103.537 2.60869 102.767 3.21172C102.029 3.80727 101.504 4.86381 101.211 6.34895C100.983 7.56247 101.081 8.60905 101.504 9.46375C101.919 10.3284 102.684 10.8691 103.797 11.0834C104.813 11.2629 105.669 11.0112 106.361 10.316C106.727 9.94218 107.032 9.44132 107.297 8.78098L108.673 9.03515C108.355 10.1042 107.782 10.9439 106.964 11.5594C105.959 12.297 104.783 12.5337 103.385 12.2745C102.202 12.0453 101.248 11.4971 100.568 10.6249C99.6876 9.44381 99.4274 7.84654 99.8102 5.83563C100.103 4.30065 100.753 3.1245 101.744 2.2997C102.807 1.3827 104.098 1.07621 105.641 1.36526C106.942 1.60946 107.9 2.14272 108.485 2.96253V2.97001Z" fill="#231F20"/>
<path d="M112.888 3.28125L120.202 5.63355L119.807 6.8695L113.814 4.93085L112.823 7.99582L118.351 9.7725L117.976 10.9437L112.448 9.16449L111.33 12.5509L117.418 14.5319L117.028 15.7355L109.611 13.3308L112.891 3.28125H112.888Z" fill="#231F20"/>
<path d="M123.159 6.80772L127.522 8.86349C128.25 9.18992 128.788 9.57865 129.168 10.0048C129.838 10.8296 129.938 11.7814 129.408 12.8828C129.153 13.4734 128.805 13.8671 128.395 14.1263C127.99 14.3804 127.522 14.51 126.989 14.5399C127.287 14.8614 127.469 15.2027 127.552 15.5292C127.629 15.878 127.537 16.3166 127.292 16.8822L126.731 18.1855C126.569 18.5592 126.476 18.8483 126.441 19.0452C126.379 19.394 126.419 19.6507 126.571 19.8376L126.479 20.0469L124.885 19.2993C124.89 19.1922 124.908 19.0701 124.93 18.9255C124.978 18.791 125.073 18.5318 125.233 18.1356L125.901 16.5085C126.171 15.8755 126.134 15.3423 125.811 14.9336C125.623 14.7044 125.281 14.4651 124.758 14.2185L121.896 12.8679L119.955 16.9794L118.637 16.3639L123.164 6.80273L123.159 6.80772ZM125.316 13.1694C125.898 13.4435 126.441 13.5482 126.894 13.4684C127.354 13.3812 127.742 13.0348 128.037 12.3969C128.352 11.7241 128.34 11.1435 127.98 10.6651C127.772 10.4159 127.444 10.1991 127.034 9.99229L123.932 8.52958L122.399 11.7964L125.318 13.1719L125.316 13.1694Z" fill="#231F20"/>
<path d="M140.008 16.0178L139.327 17.0818L136.29 15.1731L131.32 23.0523L130.092 22.2848L135.07 14.413L132.05 12.4993L132.716 11.4478L140.008 16.0128V16.0178Z" fill="#231F20"/>
<path d="M141.772 17.4102L142.933 18.2848L136.577 26.7371L135.416 25.8774L141.772 17.4102Z" fill="#231F20"/>
<path d="M145.383 20.124L150.901 24.9731L150.041 25.9599L145.591 22.0403L143.462 24.4499L147.377 27.8886L146.541 28.843L142.627 25.3993L139.447 29.0124L138.369 28.0655L145.386 20.1265L145.383 20.124Z" fill="#231F20"/>
<path d="M152.626 26.8096L153.624 27.8487L145.992 35.2121L144.984 34.1605L152.626 26.8121V26.8096Z" fill="#231F20"/>
<path d="M159.858 36.3231C159.773 37.3448 159.393 38.1571 158.738 38.7751L157.867 37.6961C158.3 37.1479 158.533 36.5673 158.548 35.9493C158.57 35.3413 158.32 34.7209 157.787 34.0556C157.142 33.2631 156.326 32.842 155.363 32.8121C154.4 32.7872 153.312 33.2357 152.124 34.2026C151.176 34.9701 150.563 35.8198 150.318 36.7517C150.07 37.6762 150.31 38.5683 151.011 39.4504C151.659 40.2528 152.479 40.6216 153.457 40.5294C153.968 40.497 154.54 40.3126 155.171 39.9836L156.044 41.0676C155.096 41.6681 154.113 41.9372 153.087 41.865C151.859 41.7828 150.803 41.1947 149.923 40.0958C149.155 39.1539 148.812 38.1297 148.865 37.0208C148.96 35.5531 149.798 34.1801 151.401 32.8944C152.627 31.9101 153.875 31.4316 155.176 31.4316C156.582 31.4366 157.762 32.0546 158.75 33.2582C159.578 34.3047 159.939 35.3065 159.856 36.3231H159.858Z" fill="#231F20"/>
<path d="M164.52 41.8526L165.378 43.2356L158.359 52.0517L157.531 50.7136L159.657 48.0996L157.461 44.5737L154.162 45.2589L153.389 44.003L164.518 41.8501L164.52 41.8526ZM160.433 47.1453L163.565 43.3128L158.697 44.327L160.433 47.1428V47.1453Z" fill="#231F20"/>
<path d="M171.639 55.4931L170.489 56.0114L168.988 52.7869L160.51 56.7141L159.893 55.4034L168.38 51.4762L166.864 48.2468L168.025 47.7061L171.637 55.4956L171.639 55.4931Z" fill="#231F20"/>
<path d="M172.383 57.6412L172.884 59.0042L162.933 62.6697L162.428 61.3092L172.383 57.6387V57.6412Z" fill="#231F20"/>
<path d="M174.756 70.7181C174.023 71.6301 172.945 72.268 171.519 72.6368C169.993 73.0405 168.62 72.9906 167.399 72.4798C165.958 71.8793 165.038 70.748 164.575 69.056C164.172 67.4737 164.355 66.1107 165.173 64.9295C165.958 63.8705 167.124 63.1304 168.68 62.7417C170.048 62.3729 171.339 62.3978 172.505 62.8439C173.998 63.3821 174.979 64.5159 175.439 66.2402C175.912 68.0493 175.679 69.532 174.753 70.7156L174.756 70.7181ZM167.887 71.2065C168.917 71.5155 169.983 71.5279 171.119 71.2364C172.344 70.9149 173.222 70.3343 173.795 69.527C174.368 68.7022 174.503 67.7428 174.211 66.6539C173.945 65.5949 173.343 64.8224 172.442 64.3514C171.531 63.8805 170.381 63.8132 168.945 64.1969C167.824 64.4935 166.926 65.0367 166.303 65.8042C165.676 66.5816 165.531 67.6083 165.858 68.904C166.181 70.1225 166.861 70.895 167.887 71.2065Z" fill="#231F20"/>
<path d="M176.932 74.0552L177.134 75.7247L169.252 81.9817L177.767 80.9601L177.937 82.3082L167.391 83.584L167.204 81.9942L175.068 75.6475L166.558 76.6741L166.391 75.331L176.929 74.0552H176.932Z" fill="#231F20"/>
<path d="M72.9768 118.265H69.3647L60.0544 107.887L60.0493 118.273H56.4473V102.846L60.0493 102.856L69.3622 113.164V102.853L72.9793 102.846V118.265H72.9768Z" fill="#231F20"/>
<path d="M96.6144 102.838L88.7274 118.255L85.6506 118.265L77.7285 102.846L81.7684 102.836L87.229 113.401L92.5771 102.836L96.6119 102.841L96.6144 102.838Z" fill="#231F20"/>
<path d="M101.686 112.374H97.8008L97.8133 108.744L101.686 108.734V112.374Z" fill="#231F20"/>
<path d="M123.977 118.238L111.992 118.246C110.586 118.246 109.386 117.787 108.395 116.855C107.432 115.931 106.939 114.765 106.942 113.372V107.698C106.927 106.307 107.422 105.151 108.4 104.214C109.386 103.3 110.589 102.821 111.992 102.829L123.974 102.821V106.42L111.992 106.429C111.019 106.429 110.541 106.856 110.534 107.715L110.541 113.372C110.551 114.219 111.024 114.648 111.992 114.648L120.372 114.653L120.36 112.33L115.447 112.335V108.727L123.972 108.732V118.236L123.977 118.238Z" fill="#231F20"/>
<path d="M144.928 118.223L129.414 118.238L129.406 102.811L133.028 102.819L133.033 114.637L144.928 114.632V118.221V118.223Z" fill="#231F20"/>
<path d="M49.243 104.241C48.2775 103.327 47.0843 102.851 45.686 102.856L33.7391 102.866L33.7341 105.056L33.7391 106.462L33.7266 108.572L33.7316 111.106L33.7416 118.29L45.691 118.278C47.0868 118.273 48.2725 117.822 49.2555 116.878C50.2411 115.953 50.7214 114.789 50.7214 113.394L50.7164 107.728C50.7064 106.332 50.2336 105.181 49.243 104.244V104.241ZM47.0993 113.401C47.0993 114.251 46.639 114.677 45.721 114.677L37.3562 114.687L37.3437 111.109L37.3762 111.101L37.3887 106.462L45.716 106.452C46.6365 106.457 47.0918 106.883 47.1018 107.738V113.399L47.0993 113.401Z" fill="#231F20"/>
<path d="M51.7024 165.241C22.0577 151.028 3.21432 121.883 2.50391 89.2378L5.51815 89.1655C6.20355 120.68 24.4066 148.805 53.0056 162.533L51.7049 165.239L51.7024 165.241Z" fill="#00AEEF"/>
<path d="M125.329 165.947L124.061 163.198C153.102 149.904 172.291 120.827 172.954 89.0933L175.986 89.1531C175.3 122.038 155.401 152.174 125.329 165.947Z" fill="#00AEEF"/>
<path d="M51.6553 158.045C25.9855 144.479 9.63352 118.098 8.95312 89.2278L11.9799 89.1655C12.6252 116.937 28.3719 142.326 53.0486 155.379L51.6528 158.045H51.6553Z" fill="#00AEEF"/>
<path d="M124.669 159.159L123.328 156.448C149.306 143.692 165.853 117.891 166.503 89.0981L169.522 89.1754C168.859 119.097 151.662 145.91 124.666 159.159H124.669Z" fill="#00AEEF"/>
<path d="M34 94.0024L143 93.9512L142.998 88.0024L34.005 88.0562L34 94.0024Z" fill="#2A4D9D"/>
<path d="M142.993 60.0024L34 60.0447L34.0075 77.0024L143 76.9552L142.993 60.0024Z" fill="#A3D2EA"/>
<path d="M34 83.0575L34.005 86.0024L143 85.9579V83.0024L34 83.0575Z" fill="#69AC44"/>
</svg>
