<svg width="105" height="168" viewBox="0 0 105 168" fill="none" xmlns="http://www.w3.org/2000/svg">
<path d="M94.3091 94.1527H29.0791L38.7391 103.733H103.889V38.7227L94.3091 28.9927V94.1527Z" fill="black"/>
<path d="M65.3392 0.00244141H0.15918V65.1124L9.73918 74.6224V9.58244L74.9092 9.51244L65.3392 0.00244141Z" fill="black"/>
<path d="M16.0498 60.1627L17.9898 71.1127L23.4098 64.1627L21.4798 53.2227L16.0498 60.1627Z" fill="black"/>
<path d="M36.4591 72.9125L33.0091 53.3325L27.5791 60.2825L31.0391 79.8625L36.4591 72.9125Z" fill="black"/>
<path d="M42.5684 80.0326L47.9884 73.0926L44.5284 53.4526C42.9384 55.1226 39.1084 60.3926 39.1084 60.3926L42.5684 80.0326Z" fill="black"/>
<path d="M50.6396 60.5323L54.8696 84.4923L60.2896 77.5523L56.0696 53.5923L50.6396 60.5323Z" fill="black"/>
<path d="M71.8097 77.6324L65.3097 40.7324L59.8896 47.6724L66.3897 84.5724L71.8097 77.6324Z" fill="black"/>
<path d="M80.2799 60.3923L74.5499 27.8823L69.1299 34.8223L74.8599 67.3423L80.2799 60.3923Z" fill="black"/>
<path d="M87.9999 38.8825L84.5499 19.3525L79.1299 26.2925L82.5799 45.8225L87.9999 38.8825Z" fill="black"/>
<path d="M3.61622 116.157C3.77881 116.274 3.91538 116.332 4.03895 116.332C4.16251 116.332 4.29908 116.274 4.45516 116.157C4.61124 116.04 4.74781 115.903 4.87138 115.74C4.99494 115.578 5.05347 115.441 5.05347 115.318C5.05347 115.188 4.99494 115.045 4.87788 114.889C4.76082 114.732 4.62425 114.596 4.46817 114.479C4.31208 114.362 4.16901 114.303 4.03895 114.303C3.90888 114.303 3.7658 114.362 3.60972 114.479C3.45364 114.596 3.31707 114.732 3.20001 114.889C3.08295 115.045 3.02441 115.188 3.02441 115.318C3.02441 115.441 3.08295 115.578 3.20001 115.74C3.31707 115.903 3.45364 116.04 3.61622 116.157Z" fill="black"/>
<path d="M5.95704 116.157C6.11963 116.274 6.2562 116.332 6.37977 116.332C6.50333 116.332 6.6399 116.274 6.79598 116.157C6.95206 116.04 7.08863 115.903 7.2122 115.74C7.33576 115.578 7.39429 115.441 7.39429 115.318C7.39429 115.188 7.33576 115.045 7.2187 114.889C7.10164 114.732 6.96507 114.596 6.80899 114.479C6.6529 114.362 6.50983 114.303 6.37977 114.303C6.2497 114.303 6.10662 114.362 5.95054 114.479C5.79446 114.596 5.65789 114.732 5.54083 114.889C5.42377 115.045 5.36523 115.188 5.36523 115.318C5.36523 115.441 5.42377 115.578 5.54083 115.74C5.65789 115.903 5.79446 116.04 5.95704 116.157Z" fill="black"/>
<path d="M0.950806 122.374C1.28248 122.569 1.69869 122.667 2.19945 122.667H10.1856V116.547H8.35166V120.612H2.01086C1.95233 120.43 1.9068 120.235 1.88079 120.02C1.85477 119.806 1.84177 119.565 1.84177 119.285C1.84177 119.006 1.86778 118.726 1.91981 118.446C1.97184 118.167 2.05638 117.868 2.16694 117.555L0.411024 117.282C0.280956 117.672 0.183406 118.089 0.111869 118.518C0.0403318 118.954 0.0078125 119.389 0.0078125 119.819C0.0078125 120.488 0.0858521 121.035 0.23543 121.451C0.385008 121.874 0.625633 122.179 0.957306 122.374H0.950806Z" fill="black"/>
<path d="M14.0283 114.459H12.1943V122.667H14.0283V114.459Z" fill="black"/>
<path d="M17.3715 125.418C17.7226 125.073 17.9763 124.657 18.1389 124.169C18.3014 123.682 18.3795 123.083 18.3795 122.394V116.547H16.5585V122.394C16.5585 122.856 16.526 123.226 16.4545 123.499C16.3829 123.779 16.2594 124 16.0773 124.169C15.8952 124.338 15.6351 124.501 15.2969 124.657L15.9732 126.296C16.552 126.055 17.0203 125.763 17.3715 125.418Z" fill="black"/>
<path d="M26.4037 122.667H34.3638V118.498C34.3638 117.997 34.2727 117.588 34.0907 117.275C33.9086 116.963 33.6224 116.736 33.2322 116.586C32.842 116.437 32.3347 116.365 31.7104 116.365C31.3202 116.365 30.9235 116.384 30.5333 116.43C30.1366 116.476 29.7464 116.541 29.3692 116.625C28.9855 116.71 28.6148 116.82 28.2636 116.95C28.1271 117.392 28.0165 117.809 27.945 118.199C27.8734 118.589 27.8344 119.005 27.8344 119.448C27.8344 119.89 27.8669 120.254 27.919 120.605H22.2285V114.459H20.3945V122.667H26.4102H26.4037ZM29.7009 120.306C29.6749 120.072 29.6619 119.786 29.6619 119.448C29.6619 119.155 29.7009 118.869 29.7659 118.589C29.9285 118.563 30.0976 118.531 30.2602 118.511C30.6829 118.459 31.0991 118.433 31.4958 118.433C31.7104 118.433 31.9055 118.433 32.0746 118.446C32.2437 118.453 32.3933 118.472 32.5233 118.498V120.605H29.7464C29.7269 120.508 29.7139 120.41 29.7009 120.306Z" fill="black"/>
<path d="M38.8327 125.847L37.7921 126.133C37.6165 126.179 37.493 126.179 37.4214 126.133C37.3499 126.088 37.3109 126.003 37.3109 125.867L37.3239 125.177C37.5125 125.099 37.7011 125.041 37.8767 125.002C38.0522 124.963 38.2539 124.93 38.4685 124.904V123.916C38.0197 123.948 37.6165 124.033 37.2718 124.156C36.9272 124.28 36.6605 124.475 36.4719 124.741C36.2833 125.008 36.1923 125.366 36.1923 125.828C36.1923 125.977 36.1923 126.107 36.2118 126.218C36.2248 126.328 36.2508 126.432 36.2833 126.53L35.7891 126.673V127.518L38.8392 126.712V125.841L38.8327 125.847Z" fill="black"/>
<path d="M42.2473 118.433V118.342C42.4229 118.29 42.5465 118.212 42.631 118.101C42.7156 117.991 42.7676 117.828 42.7871 117.607C42.8066 117.386 42.8196 117.074 42.8196 116.677V114.459H40.9857V116.781L40.4589 116.963L37.6429 114.648L36.3553 116.183L38.2348 117.724L37.9486 117.822C37.4739 117.984 37.1032 118.192 36.8495 118.433C36.5959 118.674 36.4203 118.966 36.3228 119.298C36.2252 119.63 36.1797 120.02 36.1797 120.462C36.1797 121.034 36.2772 121.496 36.4788 121.847C36.6804 122.198 37.0251 122.452 37.5129 122.615C38.0006 122.777 38.6835 122.855 39.5484 122.855C40.7971 122.855 41.6946 122.673 42.2408 122.303C42.7806 121.932 43.0538 121.327 43.0538 120.488C43.0538 120.091 42.9952 119.727 42.8782 119.409C42.7611 119.09 42.553 118.765 42.2603 118.433H42.2473ZM40.9272 120.67C40.8231 120.755 40.6345 120.8 40.3679 120.8H38.1112V119.825L39.9842 119.187L40.6995 119.773C40.8296 119.857 40.9272 119.955 40.9857 120.052C41.0442 120.15 41.0767 120.247 41.0767 120.345C41.0767 120.475 41.0247 120.586 40.9206 120.67H40.9272Z" fill="black"/>
<path d="M46.8105 114.459H44.9766V122.667H46.8105V114.459Z" fill="black"/>
<path d="M52.3733 125.769C52.7245 125.997 53.2122 126.153 53.8236 126.25C54.4414 126.348 55.2153 126.393 56.1453 126.393C57.0752 126.393 57.8947 126.341 58.5385 126.237C59.1758 126.133 59.6766 125.964 60.0343 125.73C60.392 125.496 60.6456 125.184 60.7952 124.793C60.9448 124.403 61.0163 123.916 61.0163 123.337V122.673H69.7048V116.866C69.2171 116.684 68.7423 116.554 68.2806 116.482C67.8188 116.411 67.2791 116.372 66.6742 116.372C66.1019 116.372 65.6077 116.424 65.198 116.521C64.7883 116.619 64.4501 116.775 64.1965 116.983C63.9428 117.191 63.7542 117.451 63.6306 117.77C63.5071 118.088 63.4486 118.466 63.4486 118.895C63.4486 119.253 63.4681 119.552 63.5071 119.799C63.5461 120.046 63.6046 120.319 63.6827 120.612H58.5905C58.2263 120.612 57.8621 120.586 57.5045 120.527C57.1468 120.469 56.7436 120.384 56.3013 120.274L56.0282 122.238C56.4964 122.374 56.9972 122.485 57.524 122.556C58.0507 122.628 58.558 122.667 59.0328 122.667H59.1888V123.642C59.1888 123.824 59.1238 123.968 58.9872 124.065C58.8507 124.163 58.6295 124.234 58.3174 124.273C58.0052 124.312 57.576 124.332 57.0297 124.332H53.3683C53.3163 124.143 53.2838 123.935 53.2643 123.72C53.2448 123.506 53.2382 123.259 53.2382 122.979C53.2382 122.641 53.2773 122.303 53.3488 121.964C53.4203 121.626 53.5179 121.282 53.6285 120.924L51.8335 120.625C51.749 120.904 51.6709 121.191 51.5994 121.496C51.5279 121.802 51.4823 122.108 51.4498 122.42C51.4173 122.732 51.4043 123.038 51.4043 123.343C51.4043 123.935 51.4823 124.429 51.6319 124.826C51.7815 125.223 52.0351 125.535 52.3863 125.762L52.3733 125.769ZM65.3931 118.979C65.3931 118.771 65.4321 118.628 65.5101 118.55C65.5882 118.472 65.7247 118.433 65.9264 118.433H67.8644V120.072C67.8644 120.274 67.8253 120.41 67.7538 120.488C67.6823 120.566 67.5457 120.605 67.3441 120.605H65.3931V118.979Z" fill="black"/>
<path d="M57.4325 126.965C57.3024 126.965 57.1594 127.024 57.0033 127.141C56.8472 127.258 56.7106 127.395 56.5936 127.551C56.4765 127.707 56.418 127.85 56.418 127.98C56.418 128.103 56.4765 128.24 56.5936 128.403C56.7106 128.565 56.8472 128.702 57.0098 128.819C57.1724 128.936 57.3089 128.994 57.4325 128.994C57.5561 128.994 57.6926 128.936 57.8487 128.819C58.0048 128.702 58.1414 128.565 58.2649 128.403C58.3885 128.24 58.447 128.103 58.447 127.98C58.447 127.85 58.3885 127.707 58.2714 127.551C58.1544 127.395 58.0178 127.258 57.8617 127.141C57.7056 127.024 57.5626 126.965 57.4325 126.965Z" fill="black"/>
<path d="M55.0907 126.965C54.9606 126.965 54.8176 127.024 54.6615 127.141C54.5054 127.258 54.3688 127.395 54.2518 127.551C54.1347 127.707 54.0762 127.85 54.0762 127.98C54.0762 128.103 54.1347 128.24 54.2518 128.403C54.3688 128.565 54.5054 128.702 54.668 128.819C54.8306 128.936 54.9671 128.994 55.0907 128.994C55.2143 128.994 55.3508 128.936 55.5069 128.819C55.663 128.702 55.7996 128.565 55.9231 128.403C56.0467 128.24 56.1052 128.103 56.1052 127.98C56.1052 127.85 56.0467 127.707 55.9296 127.551C55.8126 127.395 55.676 127.258 55.5199 127.141C55.3638 127.024 55.2208 126.965 55.0907 126.965Z" fill="black"/>
<path d="M66.2578 114.856C66.4204 114.973 66.557 115.031 66.6805 115.031C66.8041 115.031 66.9407 114.973 67.0968 114.856C67.2528 114.739 67.3894 114.602 67.513 114.44C67.6365 114.277 67.6951 114.141 67.6951 114.017C67.6951 113.887 67.6365 113.744 67.5195 113.588C67.4024 113.432 67.2658 113.295 67.1098 113.178C66.9537 113.061 66.8106 113.002 66.6805 113.002C66.5505 113.002 66.4074 113.061 66.2513 113.178C66.0952 113.295 65.9587 113.432 65.8416 113.588C65.7245 113.744 65.666 113.887 65.666 114.017C65.666 114.141 65.7245 114.277 65.8416 114.44C65.9587 114.602 66.0952 114.739 66.2578 114.856Z" fill="black"/>
<path d="M88.0098 114.856C88.1724 114.973 88.3089 115.031 88.4325 115.031C88.5561 115.031 88.6926 114.973 88.8487 114.856C89.0048 114.739 89.1414 114.602 89.2649 114.44C89.3885 114.277 89.447 114.141 89.447 114.017C89.447 113.887 89.3885 113.744 89.2714 113.588C89.1544 113.432 89.0178 113.295 88.8617 113.178C88.7056 113.061 88.5626 113.002 88.4325 113.002C88.3024 113.002 88.1594 113.061 88.0033 113.178C87.8472 113.295 87.7106 113.432 87.5936 113.588C87.4765 113.744 87.418 113.887 87.418 114.017C87.418 114.141 87.4765 114.277 87.5936 114.44C87.7106 114.602 87.8472 114.739 88.0098 114.856Z" fill="black"/>
<path d="M90.3525 122.667H100.316V118.667C100.316 118.095 100.238 117.64 100.082 117.315C99.9255 116.983 99.6588 116.755 99.2881 116.619C98.9174 116.482 98.3907 116.417 97.7273 116.417C97.1355 116.417 96.5827 116.495 96.0755 116.658C95.5617 116.82 95.1195 117.048 94.7488 117.341C94.3781 117.633 94.0984 117.978 93.9163 118.368V116.547H92.0824V120.612H89.3575V116.547H87.5235V120.612H81.8331C81.6315 120.612 81.4299 120.605 81.2283 120.592C81.0266 120.579 80.825 120.566 80.6234 120.547C80.838 120.319 81.0331 120.079 81.2022 119.818C81.3713 119.558 81.5014 119.266 81.5989 118.94C81.6965 118.615 81.742 118.258 81.742 117.867C81.742 117.51 81.6185 117.224 81.3713 117.002C81.1242 116.781 80.7275 116.619 80.1942 116.521C79.6544 116.424 78.9456 116.372 78.0546 116.372C77.1636 116.372 76.4808 116.424 75.941 116.521C75.4012 116.619 74.998 116.781 74.7509 117.002C74.4972 117.224 74.3737 117.51 74.3737 117.867C74.3737 118.518 74.5233 119.129 74.8289 119.688C75.1346 120.254 75.5443 120.748 76.0646 121.171C75.7524 121.301 75.4728 121.451 75.2321 121.613C74.9915 121.776 74.7834 121.971 74.6078 122.199C74.4322 122.426 74.3021 122.693 74.2046 123.012C74.107 123.33 74.0615 123.701 74.0615 124.137C74.0615 124.572 74.1136 124.969 74.2176 125.301C74.3217 125.632 74.4907 125.912 74.7249 126.127C74.959 126.341 75.2581 126.51 75.6158 126.621C75.9735 126.731 76.4157 126.79 76.936 126.79C77.5408 126.79 78.1131 126.764 78.6399 126.718C79.1667 126.673 79.6479 126.582 80.0707 126.452L79.8365 124.423C79.4008 124.533 78.9911 124.618 78.6074 124.663C78.2237 124.709 77.8205 124.735 77.4173 124.735C77.1571 124.735 76.884 124.728 76.6043 124.709C76.3247 124.689 76.0906 124.67 75.9085 124.644V123.408C75.9085 123.285 76.006 123.161 76.2011 123.038C76.3962 122.914 76.6564 122.784 76.988 122.654C77.3197 122.524 77.6709 122.394 78.0546 122.264C78.4383 122.394 78.8415 122.491 79.2642 122.563C79.687 122.634 80.1227 122.667 80.5649 122.667H90.359H90.3525ZM94.6707 119.175C95.178 118.706 95.9389 118.472 96.9469 118.472C97.6688 118.472 98.1826 118.518 98.4817 118.615V120.605H93.9619C94.0594 120 94.2935 119.519 94.6707 119.175ZM79.4398 119.682C79.1407 120.013 78.6659 120.248 78.0156 120.397C77.6189 120.313 77.2807 120.183 77.0076 120.013C76.7344 119.844 76.5328 119.63 76.3962 119.37C76.2597 119.11 76.1946 118.797 76.1946 118.433H79.8951C79.8951 118.934 79.7455 119.357 79.4463 119.682H79.4398Z" fill="black"/>
<path d="M104.145 114.459H102.312V122.667H104.145V114.459Z" fill="black"/>
<path d="M21.4352 151.503L20.2971 132.806H13.5986L10.8216 143.4H10.6135L7.83007 132.806H1.13809L0 151.503H5.22872L5.82704 141.065H6.00913L8.70153 151.503H12.7661L15.426 141.065H15.6341L16.1999 151.503H21.4352Z" fill="black"/>
<path d="M27.9523 132.806L22.9902 151.509H28.2515L29.1229 148.245H34.9434L35.8149 151.509H41.0761L36.1141 132.806H27.9523ZM30.1505 144.382L31.8999 137.826H32.1665L33.9159 144.382H30.1505Z" fill="black"/>
<path d="M53.477 151.503H59.096L54.5241 141.897L58.9464 132.799H53.3275L51.1748 137.228C50.8952 137.767 50.6806 138.268 50.531 138.723C50.3814 139.185 50.3099 139.588 50.3099 139.953H48.3394V132.799H43.0781V151.503H48.3394V143.842H50.3099C50.3099 144.199 50.3879 144.609 50.5505 145.071C50.7066 145.532 50.9212 146.027 51.1813 146.566L53.4835 151.503H53.477Z" fill="black"/>
<path d="M73.059 137.143L73.7158 132.806H61.0732V151.503H73.6248V147.165H66.3345V144.083H72.5517V140.226H66.3345V137.143H73.059Z" fill="black"/>
<path d="M88.187 132.806H82.9258V151.509H88.187V132.806Z" fill="black"/>
<path d="M90.1582 132.806V137.143H94.522V151.503H99.7832V137.143H104.147V132.806H90.1582Z" fill="black"/>
<path d="M1.93801 157.928H0V167.768H1.93801V157.928Z" fill="black"/>
<path d="M9.74273 164.464H9.64519C9.63218 164.295 9.60616 164.145 9.54763 164.015C9.49561 163.885 9.39806 163.697 9.24848 163.456L5.81469 157.935H3.92871V167.774H5.86672V161.245H5.96427C5.97728 161.401 6.00329 161.544 6.06182 161.681C6.11385 161.811 6.2114 162.006 6.36098 162.253L9.79476 167.781H11.6807V157.941H9.74273V164.47V164.464Z" fill="black"/>
<path d="M15.7393 159.535H18.2431V167.768H20.1811V159.535H22.6784V157.928H15.7393V159.535Z" fill="black"/>
<path d="M29.1622 162.149H25.4683V157.928H23.5303V167.768H25.4683V163.625H29.1622V167.768H31.1002V157.928H29.1622V162.149Z" fill="black"/>
<path d="M34.9566 163.58H38.5464V162.116H34.9566V159.535H38.8911L39.1122 157.928H33.0186V167.768H39.1447V166.162H34.9566V163.58Z" fill="black"/>
<path d="M45.5835 163.58H49.1669V162.116H45.5835V159.535H49.5181L49.7392 157.928H43.6455V167.768H49.7652V166.162H45.5835V163.58Z" fill="black"/>
<path d="M58.1741 157.928L56.2036 164.744H56.093L54.129 157.928H51.5472L50.9033 167.768H52.8218L53.2641 160.686H53.3551L55.3842 167.768H56.9124L58.9285 160.686H59.039L59.4813 167.768H61.3998L60.7559 157.928H58.1741Z" fill="black"/>
<path d="M65.0025 157.928H63.0645V167.768H65.0025V157.928Z" fill="black"/>
<path d="M73.3462 163.71C73.7755 163.228 73.9901 162.435 73.9901 161.336C73.9901 160.497 73.8925 159.827 73.6974 159.326C73.5023 158.826 73.1902 158.475 72.7544 158.253C72.3187 158.039 71.7334 157.928 70.9985 157.928H66.9209V167.768H68.8589V164.432H70.7709L72.3382 167.768H74.4453L72.7024 164.152C72.956 164.035 73.1771 163.898 73.3462 163.71ZM68.8589 159.535H70.9855C71.3497 159.535 71.6098 159.58 71.7464 159.678C71.8895 159.769 71.961 159.944 71.961 160.198V162.292C71.961 162.546 71.8895 162.715 71.7464 162.812C71.6033 162.91 71.3497 162.955 70.9855 162.955H68.8589V159.541V159.535Z" fill="black"/>
<path d="M77.3257 157.928L74.5098 167.768H76.4478L77.0266 165.719H80.5839L81.1692 167.768H83.1072L80.2913 157.928H77.3322H77.3257ZM77.4493 164.223L78.724 159.736H78.867L80.1482 164.223H77.4493Z" fill="black"/>
<path d="M82.334 159.535H84.8378V167.768H86.7693V159.535H89.2731V157.928H82.334V159.535Z" fill="black"/>
<path d="M92.0546 163.58H95.6444V162.116H92.0546V159.535H95.9956L96.2102 157.928H90.123V167.768H96.2427V166.162H92.0546V163.58Z" fill="black"/>
<path d="M102.793 162.376C102.312 162.175 101.655 162.038 100.823 161.973L99.2164 161.863V159.391C99.4375 159.359 99.6391 159.339 99.8212 159.326C100.003 159.313 100.257 159.313 100.569 159.313C101.083 159.313 101.558 159.333 101.993 159.378C102.429 159.424 102.891 159.482 103.372 159.567L103.626 158.026C102.546 157.804 101.44 157.694 100.322 157.694C99.535 157.694 98.9042 157.798 98.4359 158C97.9612 158.201 97.623 158.539 97.4214 159.001C97.2198 159.463 97.1158 160.087 97.1158 160.874C97.1158 161.375 97.1678 161.797 97.2783 162.142C97.3889 162.48 97.571 162.76 97.8311 162.975C98.0913 163.189 98.4424 163.358 98.8847 163.475C99.3334 163.599 99.8927 163.677 100.576 163.722L102.058 163.846V166.304C101.688 166.337 101.388 166.356 101.148 166.369C100.907 166.382 100.654 166.382 100.393 166.382C99.8667 166.382 99.3334 166.35 98.7806 166.278C98.2278 166.213 97.7271 166.116 97.2783 165.986L96.9922 167.572C97.5515 167.722 98.1043 167.826 98.6636 167.898C99.2229 167.963 99.7952 168.002 100.393 168.002C101.304 168.002 102.039 167.904 102.592 167.709C103.144 167.514 103.541 167.195 103.788 166.747C104.035 166.298 104.159 165.713 104.159 164.978C104.159 164.288 104.055 163.729 103.847 163.306C103.639 162.89 103.287 162.571 102.806 162.37L102.793 162.376Z" fill="black"/>
</svg>
